/* XPM */
static char * C:\Users\maisteve\Downloads\GOSSIP_master\share\pixmaps\bitcoin16_xpm[] = {
"16 16 151 2",
"  	c None",
". 	c #18275E",
"+ 	c #18275C",
"@ 	c #17265B",
"# 	c #6B594C",
"$ 	c #A98837",
"% 	c #BC962B",
"& 	c #B8922B",
"* 	c #9F7D38",
"= 	c #624F4D",
"- 	c #473F54",
"; 	c #C39E29",
"> 	c #ECC002",
", 	c #ECBF02",
"' 	c #E9BB02",
") 	c #E4B603",
"! 	c #DFAF03",
"~ 	c #D9A704",
"{ 	c #B0862A",
"] 	c #403854",
"^ 	c #453E54",
"/ 	c #C29B33",
"( 	c #A68750",
"_ 	c #E9BE15",
": 	c #F0C402",
"< 	c #EDC102",
"[ 	c #E3B403",
"} 	c #DDAC04",
"| 	c #D7A404",
"1 	c #C0901B",
"2 	c #3F3754",
"3 	c #B7902C",
"4 	c #9D7E53",
"5 	c #AA8A4E",
"6 	c #C8A43F",
"7 	c #E7BE23",
"8 	c #A88B51",
"9 	c #AA8B4E",
"0 	c #A6864E",
"a 	c #A07F4F",
"b 	c #D4A419",
"c 	c #D4A104",
"d 	c #AB802A",
"e 	c #17265C",
"f 	c #63504C",
"g 	c #B9913F",
"h 	c #B28F47",
"i 	c #B69449",
"j 	c #A98C51",
"k 	c #9F8456",
"l 	c #B4954D",
"m 	c #AF904F",
"n 	c #A78850",
"o 	c #AC894A",
"p 	c #927354",
"q 	c #D8A504",
"r 	c #D09C05",
"s 	c #5D494D",
"t 	c #18275D",
"u 	c #9C7837",
"v 	c #A98349",
"w 	c #AD8949",
"x 	c #B29049",
"y 	c #AE8F4E",
"z 	c #B99A4B",
"A 	c #C4A546",
"B 	c #F6CC01",
"C 	c #EDC20C",
"D 	c #917658",
"E 	c #A8864C",
"F 	c #CC9E27",
"G 	c #967139",
"H 	c #AE842A",
"I 	c #BE9238",
"J 	c #AF8B47",
"K 	c #CAA238",
"L 	c #C8A23E",
"M 	c #B8994B",
"N 	c #C4A549",
"O 	c #F6CD12",
"P 	c #9E8355",
"Q 	c #CDA639",
"R 	c #E3B40E",
"S 	c #DEAE04",
"T 	c #D7A504",
"U 	c #AB812C",
"V 	c #AB812A",
"W 	c #D7A406",
"X 	c #D8A918",
"Y 	c #E5B703",
"Z 	c #EBBE08",
"` 	c #A18654",
" .	c #A78C53",
"..	c #D3B13F",
"+.	c #D6B137",
"@.	c #EBBF11",
"#.	c #AF8D4A",
"$.	c #9A7A52",
"%.	c #DAA804",
"&.	c #AE842C",
"*.	c #967037",
"=.	c #DBAA04",
"-.	c #E2B203",
";.	c #C29E43",
">.	c #BD9D48",
",.	c #AE9251",
"'.	c #B1934F",
").	c #F1C503",
"!.	c #E3B71B",
"~.	c #9C7D51",
"{.	c #9C7838",
"].	c #5D494C",
"^.	c #DFAE04",
"/.	c #E5B603",
"(.	c #EABD08",
"_.	c #A08454",
":.	c #A88C52",
"<.	c #D9B436",
"[.	c #B2914A",
"}.	c #DFB218",
"|.	c #63504D",
"1.	c #AB8028",
"2.	c #DBA904",
"3.	c #E1B203",
"4.	c #E8BA03",
"5.	c #C19D41",
"6.	c #D4AE37",
"7.	c #F4C801",
"8.	c #F1C602",
"9.	c #CFA838",
"0.	c #DBB021",
"a.	c #BB942A",
"b.	c #3F3654",
"c.	c #C0901A",
"d.	c #E8BA07",
"e.	c #9C8055",
"f.	c #D5AE35",
"g.	c #D4AD35",
"h.	c #9B7E55",
"i.	c #D4AA1C",
"j.	c #403754",
"k.	c #B08629",
"l.	c #E7B90B",
"m.	c #CAA33C",
"n.	c #CAA43C",
"o.	c #C19C2C",
"p.	c #474054",
"q.	c #624F4C",
"r.	c #9F7D37",
"s.	c #A98838",
"t.	c #6B594D",
"            . + + .             ",
"        @ # $ % & * = @         ",
"      - ; > , ' ) ! ~ { ]       ",
"    ^ / ( _ : < ' [ } | 1 2     ",
"  @ 3 4 5 6 7 8 9 0 a b c d e   ",
"  f g h i j k l m n o p q r s   ",
"t u v w x y z A B C D E F c G . ",
"+ H I J K L M N O P Q R S T U t ",
"+ V W X Y Z `  ...+.@.#.$.%.&.t ",
"t *.c =.-.' ;.>.,.'.).!.~.} {.. ",
"  ].r q ^./.(._.:.<.y [.}.S |.  ",
"  @ 1.c 2.3.4.5.6.7.8.9.0.a.e   ",
"    b.c.| } [ d.e.f.g.h.i.^     ",
"      j.k.~ ! ) l.m.n.o.p.      ",
"        @ q.r.& % s.t.@         ",
"            . + + .             "};
