/* XPM */
static char * C:\Users\maisteve\Downloads\GOSSIP_master\share\pixmaps\bitcoin32_xpm[] = {
"32 32 409 2",
"  	c None",
". 	c #18275D",
"+ 	c #18275E",
"@ 	c #18275C",
"# 	c #172559",
"$ 	c #152251",
"% 	c #4C4248",
"& 	c #79623F",
"* 	c #876C3B",
"= 	c #866B3B",
"- 	c #755D3F",
"; 	c #4A3E48",
"> 	c #152252",
", 	c #162456",
"' 	c #635244",
") 	c #B2902B",
"! 	c #DAAF11",
"~ 	c #E8BA02",
"{ 	c #E6B803",
"] 	c #E4B603",
"^ 	c #E2B303",
"/ 	c #E0B003",
"( 	c #DDAC04",
"_ 	c #CB9D13",
": 	c #A47E2C",
"< 	c #594845",
"[ 	c #17255A",
"} 	c #504448",
"| 	c #BF9B24",
"1 	c #EABE03",
"2 	c #ECBF02",
"3 	c #EABD02",
"4 	c #E9BB02",
"5 	c #E7B902",
"6 	c #DFAF03",
"7 	c #DCAB04",
"8 	c #D9A804",
"9 	c #D5A305",
"0 	c #AC8326",
"a 	c #473B49",
"b 	c #17265A",
"c 	c #172457",
"d 	c #826A3B",
"e 	c #E2B60C",
"f 	c #EBBE05",
"g 	c #EDC002",
"h 	c #EEC102",
"i 	c #ECC002",
"j 	c #EBBE02",
"k 	c #E6B903",
"l 	c #E4B503",
"m 	c #E1B203",
"n 	c #DFAE03",
"o 	c #DCAA04",
"p 	c #D8A604",
"q 	c #D5A304",
"r 	c #CA990E",
"s 	c #74593C",
"t 	c #172558",
"u 	c #917436",
"v 	c #E6B904",
"w 	c #B69347",
"x 	c #675662",
"y 	c #ECC007",
"z 	c #EFC302",
"A 	c #EFC202",
"B 	c #EDC102",
"C 	c #E3B403",
"D 	c #E1B103",
"E 	c #DEAD03",
"F 	c #DAA904",
"G 	c #D7A504",
"H 	c #D4A104",
"I 	c #CF9B07",
"J 	c #816138",
"K 	c #7F663A",
"L 	c #E3B507",
"M 	c #977A55",
"N 	c #756160",
"O 	c #E0B624",
"P 	c #D9B12E",
"Q 	c #F0C402",
"R 	c #F1C602",
"S 	c #F1C502",
"T 	c #E6B703",
"U 	c #E3B303",
"V 	c #D6A304",
"W 	c #D39F04",
"X 	c #CD9907",
"Y 	c #72573D",
"Z 	c #4C4047",
"` 	c #DAAC0C",
" .	c #A9874C",
"..	c #78625F",
"+.	c #E3B71A",
"@.	c #8E7459",
"#.	c #79655F",
"$.	c #EFC407",
"%.	c #F3C701",
"&.	c #E0B827",
"*.	c #A38552",
"=.	c #645464",
"-.	c #2F2D6A",
";.	c #393369",
">.	c #705B60",
",.	c #A8864B",
"'.	c #D8A918",
").	c #DBAA04",
"!.	c #D5A204",
"~.	c #D19D05",
"{.	c #C6930E",
"].	c #453949",
"^.	c #162455",
"/.	c #B58E24",
"(.	c #D4A724",
"_.	c #413969",
":.	c #DBB022",
"<.	c #907558",
"[.	c #947A58",
"}.	c #E8BD1B",
"|.	c #B4944B",
"1.	c #F3C903",
"2.	c #BB9B48",
"3.	c #433C69",
"4.	c #AB8D50",
"5.	c #D8B12F",
"6.	c #E4B917",
"7.	c #DFB51A",
"8.	c #C9A138",
"9.	c #8A6F59",
"0.	c #4A3E67",
"a.	c #C29735",
"b.	c #DAA804",
"c.	c #D6A404",
"d.	c #D3A004",
"e.	c #CF9B05",
"f.	c #A67B26",
"g.	c #162457",
"h.	c #5C4A44",
"i.	c #DCAC05",
"j.	c #A1804E",
"k.	c #9B7C53",
"l.	c #CBA236",
"m.	c #5F4F65",
"n.	c #E7BC15",
"o.	c #756161",
"p.	c #A68A52",
"q.	c #B99948",
"r.	c #5E5166",
"s.	c #E3BC29",
"t.	c #BF9E46",
"u.	c #655564",
"v.	c #24276B",
"w.	c #28296B",
"x.	c #7A635F",
"y.	c #C9A036",
"z.	c #BD963E",
"A.	c #3B3369",
"B.	c #C69A2F",
"C.	c #D19E05",
"D.	c #CD9806",
"E.	c #554346",
"F.	c #A5802A",
"G.	c #DCAC04",
"H.	c #6E5960",
"I.	c #C59D38",
"J.	c #967955",
"K.	c #B1904A",
"L.	c #BE9A44",
"M.	c #836D5D",
"N.	c #E7BE20",
"O.	c #37346A",
"P.	c #E0BA2E",
"Q.	c #A58A53",
"R.	c #6F5E63",
"S.	c #D8B234",
"T.	c #F0C504",
"U.	c #E9BE10",
"V.	c #BE9A42",
"W.	c #BE973E",
"X.	c #AB8849",
"Y.	c #695461",
"Z.	c #DAA805",
"`.	c #D7A404",
" +	c #9B732D",
".+	c #152151",
"++	c #C99A12",
"@+	c #4B3F66",
"#+	c #D1A529",
"$+	c #79625E",
"%+	c #C6A03B",
"&+	c #987C56",
"*+	c #B99848",
"=+	c #B7974A",
"-+	c #8E775B",
";+	c #DDB832",
">+	c #484169",
",+	c #EEC71C",
"'+	c #F6CC01",
")+	c #F3C901",
"!+	c #C8A13A",
"~+	c #473D68",
"{+	c #DCAE16",
"]+	c #3A3369",
"^+	c #C79B2E",
"/+	c #C08E14",
"(+	c #152253",
"_+	c #463B47",
":+	c #584765",
"<+	c #CDA22E",
"[+	c #82695B",
"}+	c #C09B3F",
"|+	c #A58550",
"1+	c #AC8D4F",
"2+	c #9A7F57",
"3+	c #B6974C",
"4+	c #B89A4C",
"5+	c #9D8557",
"6+	c #FAD101",
"7+	c #F8CF01",
"8+	c #F6CB01",
"9+	c #F2C701",
"0+	c #E4BB1E",
"a+	c #B69447",
"b+	c #24266B",
"c+	c #CCA231",
"d+	c #7E665C",
"e+	c #B68E40",
"f+	c #443949",
"g+	c #6F563E",
"h+	c #D9A704",
"i+	c #82665A",
"j+	c #B48E43",
"k+	c #AA874B",
"l+	c #937656",
"m+	c #D7AE2B",
"n+	c #CDA739",
"o+	c #9C8056",
"p+	c #B3944D",
"q+	c #BB9C4A",
"r+	c #977F5A",
"s+	c #FDD400",
"t+	c #FBD201",
"u+	c #F8CE01",
"v+	c #CCA93D",
"w+	c #947958",
"x+	c #B49148",
"y+	c #DBAF21",
"z+	c #D5A104",
"A+	c #6C5441",
"B+	c #7C5F3A",
"C+	c #B48C40",
"D+	c #715A5F",
"E+	c #D9AC1B",
"F+	c #C69E39",
"G+	c #BD9A45",
"H+	c #7C685F",
"I+	c #E4BD29",
"J+	c #32316B",
"K+	c #F1CB20",
"L+	c #E6BF2B",
"M+	c #3C386A",
"N+	c #D5AF35",
"O+	c #E8BA03",
"P+	c #7B5E3C",
"Q+	c #7B5E3A",
"R+	c #D8A60A",
"S+	c #C39834",
"T+	c #E8BD16",
"U+	c #DAB534",
"V+	c #987F58",
"W+	c #AD9252",
"X+	c #FED600",
"Y+	c #AD9152",
"Z+	c #A38854",
"`+	c #F4C901",
" @	c #E5B919",
".@	c #B49247",
"+@	c #B18D47",
"@@	c #AE8A48",
"#@	c #B48D42",
"$@	c #7C5F3C",
"%@	c #6C533E",
"&@	c #EABC02",
"*@	c #B0904C",
"=@	c #86705D",
"-@	c #E3BD2B",
";@	c #F0CA20",
">@	c #998159",
",@	c #BD9E48",
"'@	c #F5CA01",
")@	c #F2C602",
"!@	c #E5BA1B",
"~@	c #AD8C4C",
"{@	c #A9884C",
"]@	c #937555",
"^@	c #614E63",
"/@	c #6F5641",
"(@	c #443847",
"_@	c #DDAD04",
":@	c #E5B603",
"<@	c #E8BD17",
"[@	c #443C69",
"}@	c #DAB433",
"|@	c #9A8058",
"1@	c #AA8F53",
"2@	c #B99C4C",
"3@	c #8F785B",
"4@	c #AA884B",
"5@	c #8A6D58",
"6@	c #DEAD04",
"7@	c #C08E13",
"8@	c #B1904C",
"9@	c #856F5D",
"0@	c #36336A",
"a@	c #E3BD2C",
"b@	c #574C67",
"c@	c #B7984B",
"d@	c #F2C705",
"e@	c #C7A03A",
"f@	c #443B68",
"g@	c #CFA42C",
"h@	c #C99A13",
"i@	c #9B732A",
"j@	c #E8BC16",
"k@	c #463E69",
"l@	c #D7B234",
"m@	c #9B8157",
"n@	c #A68B53",
"o@	c #E5BF28",
"p@	c #786661",
"q@	c #5A4D66",
"r@	c #8D755A",
"s@	c #705D61",
"t@	c #615164",
"u@	c #CCA334",
"v@	c #A5802D",
"w@	c #554344",
"x@	c #B2914B",
"y@	c #816C5E",
"z@	c #E3BB27",
"A@	c #564A66",
"B@	c #F2C80E",
"C@	c #F4CA02",
"D@	c #DEB72C",
"E@	c #CBA63D",
"F@	c #D6AF2F",
"G@	c #EABD05",
"H@	c #E7B903",
"I@	c #5C4A46",
"J@	c #A67B24",
"K@	c #E0B103",
"L@	c #E7BB14",
"M@	c #483F68",
"N@	c #D4AE36",
"O@	c #F2C706",
"P@	c #EEC202",
"Q@	c #D6AD2F",
"R@	c #DCB121",
"S@	c #E2B203",
"T@	c #B58E26",
"U@	c #453947",
"V@	c #B2914A",
"W@	c #7B665F",
"X@	c #F1C601",
"Y@	c #EEC103",
"Z@	c #625264",
"`@	c #C69F3B",
" #	c #E5B703",
".#	c #DAAC0D",
"+#	c #4C4149",
"@#	c #72563A",
"##	c #E6BA12",
"$#	c #524667",
"%#	c #C19E42",
"&#	c #BE9B43",
"*#	c #534667",
"=#	c #E5B710",
"-#	c #E4B605",
";#	c #7F663C",
">#	c #816136",
",#	c #D2AA32",
"'#	c #4A4068",
")#	c #9A7E56",
"!#	c #C8A43E",
"~#	c #987D56",
"{#	c #D1A932",
"]#	c #E7BA04",
"^#	c #917437",
"/#	c #74583B",
"(#	c #CA980E",
"_#	c #E1B61C",
":#	c #B08F4C",
"<#	c #8B725B",
"[#	c #8C725B",
"}#	c #AF8F4C",
"|#	c #E2B71C",
"1#	c #826A3C",
"2#	c #473B48",
"3#	c #AC8325",
"4#	c #BF9B25",
"5#	c #504549",
"6#	c #594744",
"7#	c #A37E2B",
"8#	c #DAAF12",
"9#	c #635345",
"0#	c #493E48",
"a#	c #856B3B",
"b#	c #4D4248",
"                                                                ",
"                      . + + . @ @ . + + .                       ",
"                  + . # $ % & * = - ; > # . +                   ",
"              + . , ' ) ! ~ { ] ^ / ( _ : < , . +               ",
"            + [ } | 1 2 2 3 4 5 ] ^ 6 7 8 9 0 a b +             ",
"          + c d e f g h h i j 4 k l m n o p q r s t +           ",
"        + c u v w x y z z A B j 4 { C D E F G H I J t +         ",
"      + [ K L M N O P Q R S z B j 4 T U / 7 8 V W X Y b +       ",
"      . Z `  ...+.@.#.$.%.%.&.*.=.-.;.>.,.'.).p !.~.{.]..       ",
"    + ^./.(._.:.<.[.}.|.1.2.3.4.5.6.7.8.9.0.a.b.c.d.e.f.g.+     ",
"    . h.i.j.k.l.m.n.o.p.q.r.s.t.u.v.w.x.y.z.A.B.p !.C.D.E..     ",
"  . t F.G.H.I.J.K.L.M.N.O.P.Q.R.S.T.U.V._.W.X.Y.Z.`.d.e. +b .   ",
"  + .+++).@+#+$+%+&+*+=+-+;+>+,+'+)+Q g !+~+{+]+^+p !.~./+(++   ",
"  . _+c.F :+<+[+}+|+1+2+3+4+5+6+7+8+9+0+a+b+c+d+e+b.c.W e.f++   ",
"  . g+!.h+i+j+k+l+m+n+o+p+q+r+s+t+u+v+3.w+x+y+U 6 o p z+~.A+.   ",
"  @ B+H G C+D+E+F+4 g G+H+I+J+K+s+L+M+N+z j O+l D ( b.c.W P+.   ",
"  @ Q+W c.R+S+D l O+j T+3.U+V+W+X+Y+Z+`+Q  @.@+@@@#@).G H $@.   ",
"  . %@~.z+p o 6 U { &@g *@=@-@O.;@>@,@'@)@!@~@{@]@^@7 h+!./@.   ",
"  . (@e.W c.b._@D :@~ j <@[@}@|@1@2@3@8+9+z 2 ~ 4@5@6@F c.a +   ",
"  + .+7@~.!.p 7 6 U { &@g 8@9@I+0@a@b@c@d@Q g e@f@g@6 ).h@(++   ",
"  . t i@e.d.`.F 6@D l ~ j j@k@l@m@n@o@p@q@r@s@t@u@C / G.v@b .   ",
"    . w@D.C.!.p 7 6 ^ T 4 2 x@y@z@A@B@C@D@E@F@G@H@l D i.I@.     ",
"    + ^.J@e.d.c.b.( K@l H@3 L@M@N@O@'@`+%.S P@Q@R@:@S@T@g.+     ",
"      . U@{.~.!.p ).n S@:@~ j V@W@R %.%.X@Q Y@Z@`@ #.#+#.       ",
"      + [ @#X W V 8 7 / U T 4 ##$#%#S R Q z &#*#=#-#;#b +       ",
"        + c >#I H G F E D C { 4 ,#'#)#!#!#~#'#{#]#^#t +         ",
"          + c /#(#q p o n m l k 4 _#:#<#[#}#|#e 1#t +           ",
"            + [ 2#3#9 8 7 6 ^ ] 5 4 3 2 2 1 4#5#b +             ",
"              + . , 6#7#_ ( / ^ ] { ~ 8#) 9#, . +               ",
"                  + . # $ 0#- a#* & b#> # . +                   ",
"                      . + + . @ @ . + + .                       ",
"                                                                "};
