<?xml version="1.0" encoding="UTF-8" standalone="no"?>
<svg
   xmlns:dc="http://purl.org/dc/elements/1.1/"
   xmlns:cc="http://creativecommons.org/ns#"
   xmlns:rdf="http://www.w3.org/1999/02/22-rdf-syntax-ns#"
   xmlns:svg="http://www.w3.org/2000/svg"
   xmlns="http://www.w3.org/2000/svg"
   xmlns:sodipodi="http://sodipodi.sourceforge.net/DTD/sodipodi-0.dtd"
   xmlns:inkscape="http://www.inkscape.org/namespaces/inkscape"
   id="50c55370-90e2-4cba-8b93-977bbc787ce9"
   data-name="Layer 3"
   viewBox="0 0 247.12 244"
   version="1.1"
   sodipodi:docname="tx_input.svg"
   inkscape:version="0.92.3 (2405546, 2018-03-11)">
  <metadata
     id="metadata13">
    <rdf:RDF>
      <cc:Work
         rdf:about="">
        <dc:format>image/svg+xml</dc:format>
        <dc:type
           rdf:resource="http://purl.org/dc/dcmitype/StillImage" />
      </cc:Work>
    </rdf:RDF>
  </metadata>
  <defs
     id="defs11" />
  <sodipodi:namedview
     pagecolor="#ffffff"
     bordercolor="#666666"
     borderopacity="1"
     objecttolerance="10"
     gridtolerance="10"
     guidetolerance="10"
     inkscape:pageopacity="0"
     inkscape:pageshadow="2"
     inkscape:window-width="1920"
     inkscape:window-height="1017"
     id="namedview9"
     showgrid="false"
     inkscape:zoom="0.96721311"
     inkscape:cx="123.56"
     inkscape:cy="122"
     inkscape:window-x="-8"
     inkscape:window-y="-8"
     inkscape:window-maximized="1"
     inkscape:current-layer="50c55370-90e2-4cba-8b93-977bbc787ce9" />
  <title
     id="title2">tx_input</title>
  <path
     d="M237.75,159.45a8,8,0,0,0-10.26,4.79,106,106,0,1,1,0-72.47,8,8,0,0,0,15-5.47,122,122,0,1,0,0,83.4A8,8,0,0,0,237.75,159.45Z"
     transform="translate(-5.85 -6)"
     style="fill:#e8ba02;fill-opacity:1"
     id="path4" />
  <path
     d="M245,120H110.42l18.27-18.27a8,8,0,0,0-11.31-11.31L85.45,122.34c-.18.19-.36.38-.53.58l-.1.14c-.13.16-.25.32-.37.49s0,.09-.07.13a6.16,6.16,0,0,0-.33.55l0,.09c-.1.2-.2.41-.28.61l0,.07c-.09.22-.17.44-.24.67,0,0,0,0,0,.07-.06.23-.12.45-.17.69l0,.19c0,.19-.07.38-.09.58s0,.53,0,.8,0,.53,0,.8.06.38.09.57l0,.2c0,.23.11.46.17.68,0,0,0,.05,0,.08.07.23.15.44.24.66l0,.08a6.36,6.36,0,0,0,.28.59l0,.12c.1.17.2.35.31.52s.06.1.1.15.22.3.33.45l.13.18c.15.17.3.34.46.5l.07.08,31.93,31.92a8,8,0,0,0,11.31-11.31L110.42,136H245a8,8,0,1,0,0-16Z"
     transform="translate(-5.85 -6)"
     style="fill:#e8ba02;fill-opacity:1"
     id="path6" />
  <path
     style="fill:#e8ba02;fill-opacity:1;stroke-width:1.03389835"
     d="m 138.91339,130.1166 c 18.62309,-0.15798 49.09724,-0.15798 67.72034,0 18.62309,0.15797 3.38601,0.28722 -33.86017,0.28722 -37.24619,0 -52.48327,-0.12925 -33.86017,-0.28722 z"
     id="path15"
     inkscape:connector-curvature="0" />
</svg>
