<?xml version="1.0" encoding="UTF-8" standalone="no"?>
<svg
   xmlns:dc="http://purl.org/dc/elements/1.1/"
   xmlns:cc="http://creativecommons.org/ns#"
   xmlns:rdf="http://www.w3.org/1999/02/22-rdf-syntax-ns#"
   xmlns:svg="http://www.w3.org/2000/svg"
   xmlns="http://www.w3.org/2000/svg"
   xmlns:sodipodi="http://sodipodi.sourceforge.net/DTD/sodipodi-0.dtd"
   xmlns:inkscape="http://www.inkscape.org/namespaces/inkscape"
   id="8a609de9-0399-4e71-8bbf-80363de3f7f5"
   data-name="91694f44-1ed8-49bc-99fb-9d6337054a63"
   viewBox="0 0 247.27 244.13"
   version="1.1"
   sodipodi:docname="tx_output.svg"
   inkscape:version="0.92.3 (2405546, 2018-03-11)">
  <metadata
     id="metadata13">
    <rdf:RDF>
      <cc:Work
         rdf:about="">
        <dc:format>image/svg+xml</dc:format>
        <dc:type
           rdf:resource="http://purl.org/dc/dcmitype/StillImage" />
      </cc:Work>
    </rdf:RDF>
  </metadata>
  <defs
     id="defs11" />
  <sodipodi:namedview
     pagecolor="#ffffff"
     bordercolor="#666666"
     borderopacity="1"
     objecttolerance="10"
     gridtolerance="10"
     guidetolerance="10"
     inkscape:pageopacity="0"
     inkscape:pageshadow="2"
     inkscape:window-width="1920"
     inkscape:window-height="1017"
     id="namedview9"
     showgrid="false"
     inkscape:zoom="0.96669805"
     inkscape:cx="123.635"
     inkscape:cy="122.065"
     inkscape:window-x="-8"
     inkscape:window-y="-8"
     inkscape:window-maximized="1"
     inkscape:current-layer="8a609de9-0399-4e71-8bbf-80363de3f7f5" />
  <title
     id="title2">tx_output</title>
  <path
     d="M15.2,90.6a8,8,0,0,0,10.3-4.8h0a106,106,0,1,1,0,72.4,8,8,0,0,0-15,5.5,122,122,0,1,0,0-83.4A8.12,8.12,0,0,0,15.2,90.6Z"
     transform="translate(0 0.07)"
     style="fill:#e8ba02;fill-opacity:1"
     id="path4" />
  <path
     d="M8,130H142.5l-18.3,18.3a8,8,0,0,0,11.3,11.3h0l31.9-31.9a2.65,2.65,0,0,0,.5-.6l.1-.1a1.76,1.76,0,0,1,.4-.5c.2-.2,0-.1.1-.1l.3-.6.1-.1.3-.6V125a1.45,1.45,0,0,0,.2-.7v-.1a6.37,6.37,0,0,0,.2-.7v-.2c0-.2.1-.4.1-.6v-1.6c0-.3-.1-.4-.1-.6v-.2c-.1-.2-.1-.5-.2-.7v-.1a6.37,6.37,0,0,1-.2-.7v-.1l-.3-.6-.1-.1c-.1-.2-.2-.3-.3-.5l-.1-.2a1.38,1.38,0,0,0-.3-.4l-.1-.2c-.1-.2-.3-.3-.5-.5l-.1-.1L135.5,84.2a8,8,0,1,0-11.3,11.3l18.3,18.3H8A8.1,8.1,0,0,0,8,130Z"
     transform="translate(0 0.07)"
     style="fill:#e8ba02;fill-opacity:1"
     id="path6" />
</svg>
